<svg width="1024" height="1024" viewBox="0 0 1024 1024" xmlns="http://www.w3.org/2000/svg">
<path d="M 485,123 L 484,124 L 454,124 L 453,125 L 429,125 L 428,126 L 410,126 L 409,127 L 390,127 L 389,128 L 373,128 L 372,129 L 359,129 L 358,130 L 350,130 L 349,131 L 341,131 L 340,132 L 334,132 L 333,133 L 327,133 L 326,134 L 320,134 L 319,135 L 313,135 L 312,136 L 305,136 L 304,137 L 298,137 L 297,138 L 291,138 L 290,139 L 287,139 L 286,140 L 284,140 L 283,141 L 281,141 L 280,142 L 278,142 L 277,143 L 276,143 L 275,144 L 274,144 L 272,146 L 271,146 L 269,148 L 268,148 L 257,159 L 257,160 L 252,165 L 252,166 L 249,169 L 249,170 L 246,173 L 246,174 L 244,176 L 244,177 L 242,179 L 242,180 L 240,182 L 240,183 L 237,186 L 237,187 L 236,188 L 236,189 L 234,191 L 234,192 L 232,194 L 232,195 L 230,197 L 230,198 L 228,200 L 228,201 L 227,202 L 227,203 L 225,205 L 225,206 L 223,208 L 223,209 L 222,210 L 222,211 L 220,213 L 220,214 L 219,215 L 219,216 L 217,218 L 217,219 L 216,220 L 216,221 L 215,222 L 215,223 L 213,225 L 213,226 L 212,227 L 212,228 L 211,229 L 211,230 L 209,232 L 209,233 L 208,234 L 208,235 L 207,236 L 207,237 L 206,238 L 206,239 L 204,241 L 204,242 L 203,243 L 203,244 L 202,245 L 202,246 L 201,247 L 201,248 L 200,249 L 200,250 L 199,251 L 199,252 L 198,253 L 198,254 L 197,255 L 197,256 L 195,258 L 195,259 L 194,260 L 194,261 L 193,262 L 193,263 L 192,264 L 192,265 L 191,266 L 191,267 L 190,268 L 190,269 L 189,270 L 189,271 L 188,272 L 188,273 L 187,274 L 187,275 L 186,276 L 186,277 L 185,278 L 185,279 L 184,280 L 184,281 L 183,282 L 183,283 L 182,284 L 182,285 L 181,286 L 181,287 L 180,288 L 180,289 L 179,290 L 179,291 L 178,292 L 178,294 L 177,295 L 177,296 L 176,297 L 176,298 L 175,299 L 175,300 L 174,301 L 174,302 L 173,303 L 173,304 L 172,305 L 172,306 L 171,307 L 171,309 L 170,310 L 170,311 L 169,312 L 169,313 L 168,314 L 168,315 L 167,316 L 167,318 L 166,319 L 166,320 L 165,321 L 165,322 L 164,323 L 164,325 L 162,327 L 162,329 L 161,330 L 161,331 L 160,332 L 160,333 L 157,336 L 156,336 L 154,334 L 155,333 L 155,329 L 156,328 L 156,323 L 157,322 L 157,317 L 158,316 L 158,311 L 159,310 L 159,302 L 160,301 L 160,293 L 159,292 L 159,289 L 158,288 L 158,286 L 156,284 L 156,283 L 155,282 L 154,282 L 153,281 L 152,281 L 151,280 L 139,280 L 138,281 L 132,281 L 131,282 L 125,282 L 124,283 L 119,283 L 118,284 L 113,284 L 112,285 L 109,285 L 108,286 L 104,286 L 103,287 L 100,287 L 99,288 L 97,288 L 96,289 L 93,289 L 92,290 L 91,290 L 90,291 L 88,291 L 87,292 L 86,292 L 85,293 L 84,293 L 79,298 L 79,299 L 77,301 L 77,302 L 76,303 L 76,305 L 75,306 L 75,308 L 74,309 L 74,312 L 73,313 L 73,318 L 72,319 L 72,336 L 73,337 L 73,338 L 74,339 L 74,340 L 76,342 L 77,342 L 78,343 L 79,343 L 80,344 L 82,344 L 83,345 L 87,345 L 88,346 L 93,346 L 94,347 L 101,347 L 102,348 L 109,348 L 110,349 L 121,349 L 122,350 L 146,350 L 147,349 L 150,349 L 151,350 L 147,354 L 147,355 L 146,356 L 146,357 L 144,359 L 144,360 L 143,361 L 143,362 L 141,364 L 141,365 L 140,366 L 140,367 L 139,368 L 139,369 L 137,371 L 137,372 L 136,373 L 136,374 L 134,376 L 134,377 L 133,378 L 133,379 L 131,381 L 131,382 L 130,383 L 130,384 L 129,385 L 129,386 L 128,387 L 128,388 L 126,390 L 126,391 L 125,392 L 125,393 L 124,394 L 124,395 L 123,396 L 123,397 L 121,399 L 121,400 L 120,401 L 120,402 L 118,404 L 118,405 L 117,406 L 117,407 L 115,409 L 115,410 L 114,411 L 114,412 L 112,414 L 112,415 L 110,417 L 110,418 L 108,420 L 108,421 L 84,445 L 84,446 L 79,451 L 79,452 L 75,456 L 75,457 L 72,460 L 72,461 L 70,463 L 70,464 L 69,465 L 69,466 L 67,468 L 67,469 L 66,470 L 66,471 L 65,472 L 65,473 L 64,474 L 64,476 L 63,477 L 63,479 L 62,480 L 62,482 L 61,483 L 61,486 L 60,487 L 60,491 L 59,492 L 59,497 L 58,498 L 58,505 L 57,506 L 57,519 L 56,520 L 56,542 L 55,543 L 56,544 L 55,545 L 55,550 L 56,551 L 56,552 L 55,553 L 56,554 L 56,555 L 55,556 L 55,568 L 56,569 L 56,626 L 57,627 L 57,649 L 58,650 L 58,675 L 57,676 L 58,677 L 58,681 L 57,682 L 57,683 L 58,684 L 58,691 L 57,692 L 57,694 L 58,695 L 58,736 L 57,737 L 57,739 L 58,740 L 58,743 L 57,744 L 57,757 L 58,758 L 58,780 L 59,781 L 59,789 L 60,790 L 60,795 L 61,796 L 61,800 L 62,801 L 62,804 L 63,805 L 63,808 L 64,809 L 64,811 L 65,812 L 65,816 L 64,817 L 63,817 L 62,818 L 61,818 L 60,819 L 59,819 L 57,821 L 56,821 L 54,823 L 53,823 L 53,824 L 52,825 L 52,829 L 53,830 L 53,832 L 57,836 L 58,836 L 60,838 L 61,838 L 62,839 L 63,839 L 64,840 L 65,840 L 66,841 L 68,841 L 69,842 L 70,842 L 71,843 L 73,843 L 74,844 L 77,844 L 78,845 L 80,845 L 81,846 L 84,846 L 85,847 L 88,847 L 89,848 L 92,848 L 93,849 L 97,849 L 98,850 L 102,850 L 103,851 L 107,851 L 108,852 L 113,852 L 114,853 L 119,853 L 120,854 L 126,854 L 127,855 L 132,855 L 133,856 L 139,856 L 140,857 L 146,857 L 147,858 L 154,858 L 155,859 L 162,859 L 163,860 L 171,860 L 172,861 L 181,861 L 182,862 L 191,862 L 192,863 L 201,863 L 202,864 L 214,864 L 215,865 L 227,865 L 228,866 L 242,866 L 243,867 L 259,867 L 260,868 L 276,868 L 277,869 L 299,869 L 300,870 L 322,870 L 323,871 L 344,871 L 345,872 L 370,872 L 371,873 L 372,872 L 374,872 L 375,873 L 409,873 L 410,874 L 466,874 L 467,875 L 468,874 L 474,874 L 475,875 L 478,875 L 479,874 L 485,874 L 486,875 L 487,875 L 488,874 L 495,874 L 496,875 L 504,875 L 505,874 L 506,875 L 522,875 L 523,874 L 528,874 L 529,875 L 530,875 L 531,874 L 534,874 L 535,875 L 536,874 L 538,874 L 539,875 L 540,874 L 607,874 L 608,873 L 645,873 L 646,872 L 673,872 L 674,871 L 698,871 L 699,870 L 721,870 L 722,869 L 741,869 L 742,868 L 761,868 L 762,867 L 778,867 L 779,866 L 794,866 L 795,865 L 806,865 L 807,864 L 819,864 L 820,863 L 830,863 L 831,862 L 840,862 L 841,861 L 851,861 L 852,860 L 860,860 L 861,859 L 868,859 L 869,858 L 876,858 L 877,857 L 884,857 L 885,856 L 891,856 L 892,855 L 898,855 L 899,854 L 904,854 L 905,853 L 910,853 L 911,852 L 916,852 L 917,851 L 921,851 L 922,850 L 926,850 L 927,849 L 931,849 L 932,848 L 935,848 L 936,847 L 939,847 L 940,846 L 943,846 L 944,845 L 947,845 L 948,844 L 950,844 L 951,843 L 953,843 L 954,842 L 955,842 L 956,841 L 958,841 L 959,840 L 960,840 L 961,839 L 962,839 L 963,838 L 964,838 L 967,835 L 968,835 L 969,834 L 969,833 L 971,831 L 971,824 L 969,822 L 968,822 L 967,821 L 966,821 L 964,819 L 963,819 L 962,818 L 961,818 L 960,817 L 959,817 L 958,816 L 958,813 L 959,812 L 959,810 L 960,809 L 960,807 L 961,806 L 961,803 L 962,802 L 962,799 L 963,798 L 963,793 L 964,792 L 964,785 L 965,784 L 965,769 L 966,768 L 966,638 L 967,637 L 967,619 L 968,618 L 968,533 L 967,532 L 967,515 L 966,514 L 966,500 L 965,499 L 965,493 L 964,492 L 964,488 L 963,487 L 963,485 L 962,484 L 962,482 L 961,481 L 961,479 L 960,478 L 960,476 L 959,475 L 959,474 L 958,473 L 958,472 L 957,471 L 957,470 L 956,469 L 956,468 L 955,467 L 955,466 L 954,465 L 954,464 L 952,462 L 952,461 L 950,459 L 950,458 L 946,454 L 946,453 L 941,448 L 941,447 L 915,421 L 915,420 L 913,418 L 913,417 L 911,415 L 911,414 L 910,413 L 910,412 L 908,410 L 908,409 L 907,408 L 907,407 L 905,405 L 905,404 L 904,403 L 904,402 L 902,400 L 902,399 L 901,398 L 901,397 L 899,395 L 899,394 L 898,393 L 898,392 L 897,391 L 897,390 L 896,389 L 896,388 L 894,386 L 894,385 L 893,384 L 893,383 L 892,382 L 892,381 L 890,379 L 890,378 L 889,377 L 889,376 L 888,375 L 888,374 L 886,372 L 886,371 L 885,370 L 885,369 L 883,367 L 883,366 L 882,365 L 882,364 L 881,363 L 881,362 L 879,360 L 879,359 L 877,357 L 877,356 L 876,355 L 876,354 L 873,351 L 874,350 L 900,350 L 901,349 L 912,349 L 913,348 L 921,348 L 922,347 L 929,347 L 930,346 L 936,346 L 937,345 L 940,345 L 941,344 L 944,344 L 945,343 L 946,343 L 950,339 L 950,338 L 951,337 L 951,332 L 952,331 L 952,327 L 951,326 L 951,317 L 950,316 L 950,312 L 949,311 L 949,308 L 948,307 L 948,305 L 947,304 L 947,302 L 946,301 L 946,300 L 944,298 L 944,297 L 941,294 L 940,294 L 938,292 L 936,292 L 935,291 L 934,291 L 933,290 L 931,290 L 930,289 L 927,289 L 926,288 L 924,288 L 923,287 L 919,287 L 918,286 L 915,286 L 914,285 L 910,285 L 909,284 L 905,284 L 904,283 L 899,283 L 898,282 L 893,282 L 892,281 L 886,281 L 885,280 L 873,280 L 872,281 L 871,281 L 870,282 L 869,282 L 867,284 L 867,285 L 866,286 L 866,287 L 865,288 L 865,290 L 864,291 L 864,303 L 865,304 L 865,311 L 866,312 L 866,318 L 867,319 L 867,325 L 868,326 L 868,331 L 869,332 L 869,335 L 868,336 L 866,336 L 864,334 L 864,333 L 863,332 L 863,331 L 862,330 L 862,329 L 861,328 L 861,327 L 860,326 L 860,325 L 859,324 L 859,322 L 858,321 L 858,320 L 857,319 L 857,318 L 856,317 L 856,316 L 855,315 L 855,313 L 854,312 L 854,311 L 853,310 L 853,309 L 852,308 L 852,307 L 851,306 L 851,305 L 850,304 L 850,303 L 849,302 L 849,300 L 848,299 L 848,298 L 847,297 L 847,296 L 846,295 L 846,294 L 845,293 L 845,292 L 844,291 L 844,290 L 843,289 L 843,288 L 842,287 L 842,286 L 841,285 L 841,283 L 840,282 L 840,281 L 839,280 L 839,279 L 838,278 L 838,277 L 837,276 L 837,275 L 836,274 L 836,273 L 835,272 L 835,271 L 834,270 L 834,269 L 833,268 L 833,267 L 832,266 L 832,265 L 831,264 L 831,263 L 830,262 L 830,261 L 829,260 L 829,259 L 827,257 L 827,256 L 826,255 L 826,254 L 825,253 L 825,252 L 824,251 L 824,250 L 823,249 L 823,248 L 822,247 L 822,246 L 821,245 L 821,244 L 820,243 L 820,242 L 818,240 L 818,239 L 817,238 L 817,237 L 816,236 L 816,235 L 815,234 L 815,233 L 814,232 L 814,231 L 812,229 L 812,228 L 811,227 L 811,226 L 810,225 L 810,224 L 808,222 L 808,221 L 807,220 L 807,219 L 806,218 L 806,217 L 804,215 L 804,214 L 803,213 L 803,212 L 801,210 L 801,209 L 800,208 L 800,207 L 798,205 L 798,204 L 797,203 L 797,202 L 795,200 L 795,199 L 793,197 L 793,196 L 792,195 L 792,194 L 790,192 L 790,191 L 788,189 L 788,188 L 786,186 L 786,185 L 784,183 L 784,182 L 782,180 L 782,179 L 780,177 L 780,176 L 777,173 L 777,172 L 775,170 L 775,169 L 772,166 L 772,165 L 768,161 L 768,160 L 755,147 L 754,147 L 752,145 L 751,145 L 749,143 L 748,143 L 747,142 L 746,142 L 745,141 L 743,141 L 742,140 L 740,140 L 739,139 L 737,139 L 736,138 L 733,138 L 732,137 L 727,137 L 726,136 L 721,136 L 720,135 L 714,135 L 713,134 L 707,134 L 706,133 L 700,133 L 699,132 L 690,132 L 689,131 L 681,131 L 680,130 L 671,130 L 670,129 L 661,129 L 660,128 L 647,128 L 646,127 L 633,127 L 632,126 L 616,126 L 615,125 L 597,125 L 596,124 L 535,124 L 534,123 L 530,123 L 529,124 L 525,124 L 524,123 L 523,124 L 516,124 L 515,123 L 514,123 L 513,124 L 509,124 L 508,123 L 507,123 L 506,124 L 501,124 L 500,123 L 499,124 L 493,124 L 492,123 L 489,123 L 488,124 L 487,124 L 486,123 Z" fill="white" stroke="black" stroke-width="1" id="left_mirror" class="car-part" data-part="left_mirror"/>
</svg>